<svg xmlns="http://www.w3.org/2000/svg" viewBox="0 0 1230 804"><defs><style>.cls-1,.cls-2{fill:none;stroke-miterlimit:10;}.cls-1{stroke:#8080e3;opacity:0.3;}.cls-2{stroke:#fda5db;}</style></defs><g id="Capa_2" data-name="Capa 2"><g id="Capa_1-2" data-name="Capa 1"><path class="cls-1" d="M613.25,293.75a464.61,464.61,0,0,1,78,6.58L780.56,126.5a517.63,517.63,0,0,0-282.62-21.17L519,303.39A463.1,463.1,0,0,1,613.25,293.75Z"/><path class="cls-1" d="M505.05,306.51,484,108.41A514.24,514.24,0,0,0,218.31,266.76L331.85,389.44A459.7,459.7,0,0,1,505.05,306.51Z"/><path class="cls-1" d="M835.79,350.86l194-27.95A516.29,516.29,0,0,0,793.88,131.63L705.85,303A458.51,458.51,0,0,1,835.79,350.86Z"/><path class="cls-1" d="M320.71,398.3,209,277.53A512.43,512.43,0,0,0,92.77,537.07l92.82,44.39A462.87,462.87,0,0,1,320.71,398.3Z"/><path class="cls-2" d="M180.44,594.73,90.91,551.91a522.08,522.08,0,0,0-3.16,57.34,515.55,515.55,0,0,0,17.49,133.5h46.68A459.78,459.78,0,0,1,180.44,594.73Z"/><path class="cls-1" d="M559.75,632.75A55,55,0,0,0,509,666.41L267.75,687.75,509,709.09a55,55,0,1,0,50.71-76.34Z"/><path class="cls-1" d="M1229.5,615C1229.5,275.62,954.38.5,615,.5S.5,275.62.5,615A614.17,614.17,0,0,0,30,803.5h1170.1A614.17,614.17,0,0,0,1229.5,615Z"/></g></g></svg>